# xmcd
# Track frame offsets:
# 150
# 12631
# 24522
# 33814
# 46763
# 60666
# 70220
# 84033
# 101008
# 116943
# 129990
# 141278
# 151469
# 166744
# 177877
# 188093
# 198270
# 208994
# 219912
# 229878
# 240954
# 252356
# 264006
# 274483
# 286813
# 298019
# 311446
# 323755
#
# Disc length: 4461 seconds
# Revision: 0
# Processed by: cddbd v1.4PL0 Copyright (c) Steve Scherf et al.
# Submitted via: VisiTrax 2.9.5.181 - For more info visit www.synapsa.com
#
DISCID=89116b1c
DTITLE=Pasty Cline - Her Greatest Hits
DYEAR=1900
DGENRE=
TTITLE0=Crazy
TTITLE1=Sweet Dreams (Of You)
TTITLE2=Walkin' After Midnight
TTITLE3=I Fall To Pieces
TTITLE4=So Wrong
TTITLE5=Back In Baby's Arms
TTITLE6=She's Got You
TTITLE7=Faded Love
TTITLE8=Why Can't He Be You
TTITLE9=You're Stronger Than Me
TTITLE10=Leavin' On Your Mind
TTITLE11=Foolin' 'Round
TTITLE12=The Wayward Wind
TTITLE13=South Of The Border (Down Mexico Way)
TTITLE14=I Love You So Much It Hurts
TTITLE15=Seven Lonely Days
TTITLE16=San Antonio Rose
TTITLE17=Your Cheatin' Heart
TTITLE18=Blue Moon Of Kentucky
TTITLE19=Crazy Arms
TTITLE20=Half As Much
TTITLE21=Lonely Street
TTITLE22=Who Can I Count On
TTITLE23=Always
TTITLE24=Shoes
TTITLE25=I Can't help It (If I'm Still In Love With You)
TTITLE26=He Called Me Baby
TTITLE27=Love Letters In The Sand
EXTD=
EXTT0=
EXTT1=
EXTT2=
EXTT3=
EXTT4=
EXTT5=
EXTT6=
EXTT7=
EXTT8=
EXTT9=
EXTT10=
EXTT11=
EXTT12=
EXTT13=
EXTT14=
EXTT15=
EXTT16=
EXTT17=
EXTT18=
EXTT19=
EXTT20=
EXTT21=
EXTT22=
EXTT23=
EXTT24=
EXTT25=
EXTT26=
EXTT27=
PLAYORDER=
